<svg width="15.000000" height="15.000000" viewBox="0 0 15 15" fill="none" xmlns="http://www.w3.org/2000/svg" xmlns:xlink="http://www.w3.org/1999/xlink">
	<desc>
			Created with Pixso.
	</desc>
	<defs/>
	<path id="Vector" d="M6.18 -0.44C6.34 -0.44 6.51 -0.44 6.69 -0.44L7 -0.44C9.42 -0.44 9.7 -0.43 10.66 -0.38C11.54 -0.34 12.02 -0.2 12.34 -0.07C12.77 0.09 13.07 0.29 13.38 0.61C13.7 0.92 13.9 1.23 14.06 1.65C14.19 1.97 14.34 2.45 14.38 3.33C14.42 4.29 14.43 4.57 14.43 6.99C14.43 9.41 14.42 9.7 14.38 10.66C14.33 11.54 14.19 12.02 14.06 12.34C13.9 12.76 13.7 13.06 13.38 13.38C13.07 13.7 12.77 13.89 12.34 14.06C12.02 14.18 11.54 14.33 10.66 14.37C9.7 14.41 9.42 14.42 7 14.42C4.57 14.42 4.29 14.41 3.33 14.37C2.45 14.33 1.97 14.18 1.65 14.06C1.23 13.89 0.92 13.7 0.61 13.38C0.29 13.06 0.09 12.76 -0.07 12.34C-0.2 12.02 -0.34 11.54 -0.39 10.66C-0.43 9.7 -0.44 9.41 -0.44 6.99C-0.44 4.57 -0.43 4.28 -0.39 3.33C-0.34 2.44 -0.2 1.97 -0.07 1.65C0.09 1.22 0.29 0.92 0.61 0.6C0.92 0.29 1.23 0.09 1.65 -0.08C1.97 -0.2 2.45 -0.35 3.33 -0.39C4.17 -0.43 4.49 -0.44 6.18 -0.44L6.18 -0.44ZM11.84 1.07C11.23 1.07 10.75 1.56 10.75 2.16C10.75 2.76 11.23 3.24 11.84 3.24C12.44 3.24 12.92 2.76 12.92 2.16C12.92 1.56 12.44 1.07 11.84 1.07ZM2.34 7C2.34 4.42 4.42 2.34 7 2.34C9.57 2.34 11.65 4.42 11.65 7C11.65 9.57 9.57 11.65 7 11.65C4.42 11.65 2.34 9.57 2.34 7Z" fill="#36A8DD" fill-opacity="1.000000" fill-rule="evenodd"/>
</svg>
