<svg width="16.000000" height="17.000000" viewBox="0 0 16 17" fill="none" xmlns="http://www.w3.org/2000/svg" xmlns:xlink="http://www.w3.org/1999/xlink">
	<desc>
			Created with Pixso.
	</desc>
	<defs/>
	<path id="Vector" d="M-0.21 16.23L2.97 15.39L3.28 15.58C4.57 16.34 6.04 16.75 7.55 16.75L7.55 16.75C12.19 16.75 15.95 12.98 15.96 8.34C15.96 6.1 15.08 3.99 13.5 2.4C11.91 0.81 9.8 -0.06 7.56 -0.06C2.92 -0.06 -0.85 3.7 -0.85 8.34C-0.85 9.92 -0.4 11.47 0.44 12.81L0.64 13.13L-0.21 16.23ZM12.3 10.52C12.48 10.61 12.6 10.66 12.65 10.75C12.71 10.85 12.71 11.36 12.5 11.95C12.29 12.54 11.28 13.08 10.8 13.15C10.36 13.22 9.81 13.24 9.2 13.05C8.84 12.93 8.37 12.78 7.76 12.52C5.4 11.5 3.8 9.2 3.49 8.77C3.47 8.74 3.46 8.72 3.45 8.7L3.45 8.7C3.31 8.52 2.42 7.33 2.42 6.09C2.42 4.93 2.99 4.32 3.25 4.04C3.27 4.02 3.29 4 3.3 3.98C3.53 3.73 3.81 3.67 3.98 3.67C4.14 3.67 4.31 3.67 4.46 3.68C4.48 3.68 4.5 3.68 4.52 3.68C4.66 3.68 4.85 3.68 5.03 4.11C5.1 4.28 5.2 4.53 5.31 4.79C5.52 5.32 5.76 5.9 5.81 5.99C5.87 6.11 5.91 6.26 5.83 6.43C5.82 6.45 5.8 6.48 5.79 6.5C5.73 6.63 5.68 6.72 5.58 6.85C5.53 6.9 5.49 6.95 5.45 7.01C5.36 7.11 5.27 7.22 5.2 7.29C5.07 7.42 4.94 7.56 5.09 7.81C5.23 8.06 5.74 8.89 6.49 9.56C7.3 10.28 8 10.58 8.36 10.74C8.42 10.77 8.48 10.79 8.52 10.81C8.77 10.94 8.92 10.92 9.07 10.75C9.22 10.58 9.7 10.01 9.87 9.76C10.04 9.51 10.21 9.55 10.44 9.63C10.67 9.72 11.91 10.33 12.16 10.45C12.21 10.48 12.26 10.5 12.3 10.52Z" fill="#36A8DD" fill-opacity="1.000000" fill-rule="evenodd"/>
</svg>
